<?xml version="1.0" encoding="utf-8"?>
<!-- Generator: Adobe Illustrator 24.2.1, SVG Export Plug-In . SVG Version: 6.00 Build 0)  -->
<svg version="1.1" id="Layer_1" xmlns="http://www.w3.org/2000/svg" xmlns:xlink="http://www.w3.org/1999/xlink" x="0px" y="0px"
	 viewBox="0 0 24 24" style="enable-background:new 0 0 24 24;" xml:space="preserve">
<path d="M24,4.8v1.1H4.4v13.3h-2c-1.3,0-2.4-1.1-2.4-2.4V2.4C0,1.1,1.1,0,2.4,0h7.2L12,2.4h9.6C22.9,2.4,24,3.5,24,4.8z"/>
<path d="M6.4,7.9V24H24V7.9H6.4z M15.9,9.6h2.7v2.1h-2.7V9.6z M11.8,9.6h2.7v2.1h-2.7V9.6z M7.8,9.6h2.7v2.1H7.8V9.6z M10.5,22.5
	H7.8v-2.1h2.7V22.5z M14.5,22.5h-2.7v-2.1h2.7V22.5z M18.6,22.5h-2.7v-2.1h2.7V22.5z M22.7,22.5H20v-2.1h2.7V22.5z M22.7,18.7H7.8
	v-5.4h14.9V18.7z M22.7,11.7H20V9.6h2.7V11.7z"/>
</svg>
