<?xml version="1.0" encoding="utf-8"?>
<!-- Generator: Adobe Illustrator 24.0.2, SVG Export Plug-In . SVG Version: 6.00 Build 0)  -->
<svg version="1.1" id="Layer_1" xmlns="http://www.w3.org/2000/svg" xmlns:xlink="http://www.w3.org/1999/xlink" x="0px" y="0px"
	 viewBox="0 0 24 24" style="enable-background:new 0 0 24 24;" xml:space="preserve">
<style type="text/css">
	.st0{fill:none;}
</style>
<path d="M24,4.8v4c-2-2.7-5.2-4.5-8.8-4.5c-6,0-10.9,4.9-10.9,10.8c0,1.4,0.3,2.8,0.8,4H2.4c-1.3,0-2.4-1.1-2.4-2.4V2.4
	C0,1.1,1.1,0,2.4,0h7.2L12,2.4h9.6C22.9,2.4,24,3.5,24,4.8z"/>
<path class="st0" d="M0,0h24v24H0V0z"/>
<path d="M24,14.3c-0.5-4.5-4.2-8-8.8-8c-4.9,0-8.9,4-8.9,8.8c0,1.5,0.4,2.8,1,4C8.8,22,11.8,24,15.2,24c3.4,0,6.4-2,7.9-4.8
	c0.5-1,0.8-2,0.9-3.1c0-0.3,0-0.6,0-0.9C24,14.9,24,14.5,24,14.3z M16,20.6h-2v-4.7h-1.6V14H14v-1.7c0-1.2,1-2.1,2.1-2.1h1.7v1.7
	h-1.2c-0.4,0-0.7,0.3-0.7,0.7V14h1.9l-0.3,1.9H16V20.6z"/>
</svg>
