<?xml version="1.0" encoding="utf-8"?>
<!-- Generator: Adobe Illustrator 24.2.1, SVG Export Plug-In . SVG Version: 6.00 Build 0)  -->
<svg version="1.1" id="Layer_1" xmlns="http://www.w3.org/2000/svg" xmlns:xlink="http://www.w3.org/1999/xlink" x="0px" y="0px"
	 viewBox="0 0 24 24" style="enable-background:new 0 0 24 24;" xml:space="preserve">
<path d="M24.1,21.1L23,13.4c-0.3-2-2-3.4-4-3.4h-4c0-0.3,0-1,0-2h0v0h-1.1v2H10c-2,0-3.7,1.5-4,3.4l-1.1,7.7c-0.2,1.5,1,2.9,2.5,2.9
	c0.7,0,1.3-0.3,1.8-0.8l2.3-2.3h6l2.3,2.3c0.5,0.5,1.1,0.8,1.8,0.8c1.4,0,2.6-1.2,2.6-2.5C24.1,21.3,24.1,21.2,24.1,21.1z M13.5,16
	h-2v2h-1v-2h-2v-1h2v-2h1v2h2V16z M17.5,15c-0.5,0-1-0.5-1-1s0.5-1,1-1s1,0.5,1,1S18,15,17.5,15z M19.5,18c-0.5,0-1-0.5-1-1
	s0.5-1,1-1s1,0.5,1,1S20,18,19.5,18z"/>
<path d="M24,4.8v5.9C22.9,9,21.1,8,19,8h-4c0,0,0-0.2,0-0.3c0-0.4,0-1.2,0-2.3V4.5h-1.1V8H10C7,8,4.4,10.2,4,13.2l-0.9,6H2.4
	c-1.3,0-2.4-1.1-2.4-2.4V2.4C0,1.1,1.1,0,2.4,0h7.2L12,2.4h9.6C22.9,2.4,24,3.5,24,4.8z"/>
</svg>
