<?xml version="1.0" encoding="utf-8"?>
<!-- Generator: Adobe Illustrator 24.2.1, SVG Export Plug-In . SVG Version: 6.00 Build 0)  -->
<svg version="1.1" id="Layer_1" xmlns="http://www.w3.org/2000/svg" xmlns:xlink="http://www.w3.org/1999/xlink" x="0px" y="0px"
	 viewBox="0 0 24 24" style="enable-background:new 0 0 24 24;" xml:space="preserve">
<style type="text/css">
	.st0{display:none;}
</style>
<path class="st0" d="M8.1,9.1C4.7,12.4,4.6,17.9,8,21.4s8.9,3.5,12.3,0.2c0.6-0.6,0.6-1.5,0-2c-0.3-0.3-0.6-0.4-1-0.4
	c-0.3,0-0.7-0.2-0.9-0.4c-0.6-0.6-0.5-1.5,0-2l1.2-1.2c1.9-1.9,2-4.9,0.1-6.8C16.8,5.5,11.6,5.7,8.1,9.1z M10.4,19
	c-0.6,0.6-1.5,0.5-2,0s-0.5-1.5,0-2c0.6-0.6,1.5-0.5,2,0C11,17.5,11,18.4,10.4,19z M9.8,14.2c-0.6,0.6-1.5,0.5-2,0
	c-0.6-0.6-0.5-1.5,0-2c0.6-0.6,1.5-0.5,2,0C10.4,12.7,10.3,13.7,9.8,14.2z M13.2,10.9c-0.6,0.6-1.5,0.5-2,0s-0.5-1.5,0-2
	c0.6-0.6,1.5-0.5,2,0C13.8,9.4,13.8,10.3,13.2,10.9z M18,11.6c-0.6,0.6-1.5,0.5-2,0c-0.6-0.6-0.5-1.5,0-2c0.6-0.6,1.5-0.5,2,0
	S18.6,11,18,11.6z"/>
<path d="M14.3,18.2c-1.3,0.3-2.2,1.5-1.9,2.9c0.2,1-0.6,1.8-1.3,1.9c0.9,0.8,2.3,1.2,3.5,0.9c1.7-0.4,2.9-2.1,2.5-3.8
	C16.8,18.7,15.6,17.9,14.3,18.2z M23.6,8.5l-1.3-0.8c-0.4-0.2-0.9-0.1-1.1,0.2l-5.6,8.5l2.6,1.7l5.6-8.5C24.1,9.3,24,8.8,23.6,8.5z"
	/>
<path d="M24,4.8v1.6L23.4,6c-0.5-0.3-1-0.5-1.5-0.5c-0.9,0-1.8,0.5-2.3,1.3L19,7.6l-2.4-4.3L2.8,10.8l4.5,8.4H2.4
	c-1.3,0-2.4-1.1-2.4-2.4V2.4C0,1.1,1.1,0,2.4,0h7.2L12,2.4h9.6C22.9,2.4,24,3.5,24,4.8z"/>
<path d="M15.8,6L5.5,11.7l4.1,7.5l0.7,1.3c0-0.4,0.1-0.9,0.2-1.3c0.1-0.4,0.3-0.8,0.5-1.1c0.5-0.8,1.3-1.4,2.2-1.7l4.5-6.9L15.8,6z
	 M11.8,14.5c-1.1,0-2.1-0.9-2.1-2.1c0-1.1,0.9-2.1,2.1-2.1c1.1,0,2.1,0.9,2.1,2.1C13.9,13.6,13,14.5,11.8,14.5z"/>
<path d="M23.9,20.9l-6.1,3.3c0.2-0.2,0.4-0.4,0.5-0.6c0.7-1,0.9-2.1,0.9-3.3l0.7-1.1l1.7-2.6l1.2,2.2L23.9,20.9z"/>
</svg>
