<?xml version="1.0" encoding="utf-8"?>
<!-- Generator: Adobe Illustrator 24.0.2, SVG Export Plug-In . SVG Version: 6.00 Build 0)  -->
<svg version="1.1" id="Layer_1" xmlns="http://www.w3.org/2000/svg" xmlns:xlink="http://www.w3.org/1999/xlink" x="0px" y="0px"
	 viewBox="0 0 24 24" style="enable-background:new 0 0 24 24;" xml:space="preserve">
<style type="text/css">
	.st0{fill:none;}
</style>
<path d="M24,4.8v4.4c-0.5-0.3-1.1-0.4-1.8-0.4h-0.7c-0.1-2-1.8-3.5-3.8-3.5h-5.3c-2,0-3.6,1.6-3.8,3.5H8.1c-2.1,0-3.8,1.7-3.8,3.8
	v6.7H2.4c-1.3,0-2.4-1.1-2.4-2.4V2.4C0,1.1,1.1,0,2.4,0h7.2L12,2.4h9.6C22.9,2.4,24,3.5,24,4.8z"/>
<path class="st0" d="M0,0h24v24H0V0z"/>
<path d="M22.2,10.7h-2.7V8.9c0-1-0.8-1.8-1.8-1.8h-5.3c-1,0-1.8,0.8-1.8,1.8v1.8H8.1c-1,0-1.8,0.8-1.8,1.8v9.7c0,1,0.8,1.8,1.8,1.8
	h14.2c1,0,1.8-0.8,1.8-1.8v-9.7C24,11.5,23.2,10.7,22.2,10.7z M12.5,8.9h5.3v1.8h-5.3V8.9z M22.2,22.2H8.1v-1.8h14.2V22.2z
	 M22.2,17.8H8.1v-5.3h2.7v1.8h1.8v-1.8h5.3v1.8h1.8v-1.8h2.7V17.8z"/>
</svg>
