<?xml version="1.0" encoding="utf-8"?>
<!-- Generator: Adobe Illustrator 24.2.1, SVG Export Plug-In . SVG Version: 6.00 Build 0)  -->
<svg version="1.1" id="Layer_1" xmlns="http://www.w3.org/2000/svg" xmlns:xlink="http://www.w3.org/1999/xlink" x="0px" y="0px"
	 viewBox="0 0 24 24" style="enable-background:new 0 0 24 24;" xml:space="preserve">
<path d="M21.6,2.4H12L9.6,0H2.4C1.1,0,0,1.1,0,2.4v14.4c0,1.3,1.1,2.4,2.4,2.4h2.8v-4.3c-1-1-1.6-2.5-1.6-4c0-3.2,2.6-5.8,5.8-5.8
	c1.6,0,3.1,0.7,4.2,1.8c1-1.1,2.5-1.8,4.1-1.8c3.2,0,5.8,2.6,5.8,5.8c0,0.9-0.2,1.7-0.6,2.5l1.2-0.7V4.8C24,3.5,22.9,2.4,21.6,2.4z"
	/>
<path d="M22,16.1l-2,1.2v-2.6H7.2V24H20v-2.5l2,1.1l2,1.1V15L22,16.1z M17,20.3h-6.8v-2.1H17V20.3z"/>
<path d="M12.4,8.6c-0.7-0.9-1.8-1.5-3-1.5c-2.1,0-3.8,1.7-3.8,3.8c0,0.6,0.2,1.3,0.4,1.8c0.6,1.2,1.9,2,3.3,2c1.2,0,2.3-0.6,3-1.5
	c0.1-0.2,0.2-0.3,0.3-0.5c0.3-0.5,0.5-1.1,0.5-1.8C13.1,10,12.8,9.2,12.4,8.6z M9.4,9.3c0.8,0,1.5,0.7,1.5,1.5
	c0,0.8-0.7,1.5-1.5,1.5c-0.8,0-1.5-0.7-1.5-1.5C7.8,10,8.5,9.3,9.4,9.3z"/>
<path d="M17.7,7.1c-1.2,0-2.3,0.6-3,1.5c-0.5,0.6-0.8,1.4-0.8,2.3c0,0.6,0.2,1.3,0.4,1.8c0.1,0.2,0.2,0.3,0.3,0.5
	c0.7,0.9,1.8,1.5,3,1.5c1.4,0,2.7-0.8,3.3-2c0.3-0.5,0.4-1.1,0.4-1.8C21.4,8.8,19.7,7.1,17.7,7.1z M17.7,12.4
	c-0.8,0-1.5-0.7-1.5-1.5c0-0.8,0.7-1.5,1.5-1.5c0.8,0,1.5,0.7,1.5,1.5C19.2,11.7,18.5,12.4,17.7,12.4z"/>
</svg>
