<?xml version="1.0" encoding="utf-8"?>
<!-- Generator: Adobe Illustrator 24.2.1, SVG Export Plug-In . SVG Version: 6.00 Build 0)  -->
<svg version="1.1" id="Layer_1" xmlns="http://www.w3.org/2000/svg" xmlns:xlink="http://www.w3.org/1999/xlink" x="0px" y="0px"
	 viewBox="0 0 24 24" style="enable-background:new 0 0 24 24;" xml:space="preserve">
<style type="text/css">
	.st0{display:none;}
</style>
<path d="M24,4.8v1.1H4.4v13.3h-2c-1.3,0-2.4-1.1-2.4-2.4V2.4C0,1.1,1.1,0,2.4,0h7.2L12,2.4h9.6C22.9,2.4,24,3.5,24,4.8z"/>
<path d="M20.8,7.9l2.9,2.9l-3.1,3.1h-2.5l3.1-3.1l-2.9-2.9h-3l2.9,2.9l-3.1,3.1h-2.5l3.1-3.1l-2.9-2.9H9.6l2.9,2.9l-3.1,3.1H6.9
	l3.1-3.1L7.1,7.9H6.4V24H24V7.9H20.8z M21.8,21.9H8.5v-2.7h13.3V21.9z M21.9,17.2H8.5v-1.7h13.4V17.2z"/>
<path class="st0" d="M19.2,11.3l-5.8,5.8L10.3,14l-1.2,1.2l4.4,4.4l7-7L19.2,11.3z M15.2,6.4c-4.8,0-8.8,3.9-8.8,8.8
	s3.9,8.8,8.8,8.8s8.8-3.9,8.8-8.8S20.1,6.4,15.2,6.4z M15.2,22.2c-3.9,0-7-3.1-7-7s3.1-7,7-7s7,3.1,7,7S19.1,22.2,15.2,22.2z"/>
</svg>
