<?xml version="1.0" encoding="utf-8"?>
<!-- Generator: Adobe Illustrator 24.2.1, SVG Export Plug-In . SVG Version: 6.00 Build 0)  -->
<svg version="1.1" id="Layer_1" xmlns="http://www.w3.org/2000/svg" xmlns:xlink="http://www.w3.org/1999/xlink" x="0px" y="0px"
	 viewBox="0 0 24 24" style="enable-background:new 0 0 24 24;" xml:space="preserve">
<style type="text/css">
	.st0{display:none;}
</style>
<path class="st0" d="M22,16.1l-2,1.2v-2.6H7.2V24H20v-2.5l2,1.1l2,1.1V15L22,16.1z M17,20.3h-6.8v-2.1H17V20.3z"/>
<path class="st0" d="M12.4,8.6c-0.7-0.9-1.8-1.5-3-1.5c-2.1,0-3.8,1.7-3.8,3.8c0,0.6,0.2,1.3,0.4,1.8c0.6,1.2,1.9,2,3.3,2
	c1.2,0,2.3-0.6,3-1.5c0.1-0.2,0.2-0.3,0.3-0.5c0.3-0.5,0.5-1.1,0.5-1.8C13.1,10,12.8,9.2,12.4,8.6z M9.4,9.3c0.8,0,1.5,0.7,1.5,1.5
	c0,0.8-0.7,1.5-1.5,1.5c-0.8,0-1.5-0.7-1.5-1.5C7.8,10,8.5,9.3,9.4,9.3z"/>
<path class="st0" d="M17.7,7.1c-1.2,0-2.3,0.6-3,1.5c-0.5,0.6-0.8,1.4-0.8,2.3c0,0.6,0.2,1.3,0.4,1.8c0.1,0.2,0.2,0.3,0.3,0.5
	c0.7,0.9,1.8,1.5,3,1.5c1.4,0,2.7-0.8,3.3-2c0.3-0.5,0.4-1.1,0.4-1.8C21.4,8.8,19.7,7.1,17.7,7.1z M17.7,12.4
	c-0.8,0-1.5-0.7-1.5-1.5c0-0.8,0.7-1.5,1.5-1.5c0.8,0,1.5,0.7,1.5,1.5C19.2,11.7,18.5,12.4,17.7,12.4z"/>
<path d="M21.5,9c-1.3-1.2-3.1-1.9-5-1.9c-4.2,0-7.5,3.4-7.5,7.5V24H24v-9.4C24,12.4,23,10.4,21.5,9z M15.2,15.1
	c0,0.4-0.3,0.7-0.7,0.7c-0.4,0-0.7-0.3-0.7-0.7v-1.9c0-0.4,0.3-0.7,0.7-0.7c0.4,0,0.7,0.3,0.7,0.7V15.1z M18.5,15.1
	c0,0.4-0.3,0.7-0.7,0.7c-0.4,0-0.7-0.3-0.7-0.7v-1.9c0-0.4,0.3-0.7,0.7-0.7c0.4,0,0.7,0.3,0.7,0.7V15.1z"/>
<path d="M6.3,7h-4C1.7,7,1.2,6.6,1.2,6c0-0.6,0.5-1.1,1.1-1.1h4c0.6,0,1.1,0.5,1.1,1.1C7.4,6.6,6.9,7,6.3,7z M21.6,2.4H12L9.6,0H2.4
	C1.1,0,0,1.1,0,2.4v14.4c0,1.3,1.1,2.4,2.4,2.4h4.5v-4.5c0-1.5,0.3-2.9,1-4.2H4.4c-0.6,0-1.1-0.5-1.1-1.1c0-0.6,0.5-1.1,1.1-1.1h4.9
	c1.8-2,4.3-3.2,7.2-3.2c2.4,0,4.6,0.9,6.4,2.5C23.3,8,23.7,8.4,24,8.8v-4C24,3.5,22.9,2.4,21.6,2.4z"/>
</svg>
