<?xml version="1.0" encoding="utf-8"?>
<!-- Generator: Adobe Illustrator 24.2.1, SVG Export Plug-In . SVG Version: 6.00 Build 0)  -->
<svg version="1.1" id="Layer_1" xmlns="http://www.w3.org/2000/svg" xmlns:xlink="http://www.w3.org/1999/xlink" x="0px" y="0px"
	 viewBox="0 0 24 24" style="enable-background:new 0 0 24 24;" xml:space="preserve">
<style type="text/css">
	.st0{fill:none;}
</style>
<path class="st0" d="M0,0h24v24H0V0z M0,0h24v24H0V0z"/>
<path d="M19.2,11.3l-5.8,5.8L10.3,14l-1.2,1.2l4.4,4.4l7-7L19.2,11.3z M15.2,6.4c-4.8,0-8.8,3.9-8.8,8.8s3.9,8.8,8.8,8.8
	s8.8-3.9,8.8-8.8S20.1,6.4,15.2,6.4z M15.2,22.2c-3.9,0-7-3.1-7-7s3.1-7,7-7s7,3.1,7,7S19.1,22.2,15.2,22.2z"/>
<path d="M24,4.8V9c-2-2.7-5.2-4.5-8.8-4.5C9.3,4.4,4.4,9.3,4.4,15.2c0,1.4,0.3,2.7,0.8,3.9H2.4C1.1,19.1,0,18,0,16.7V2.3
	C0,1,1.1,0,2.4,0h7.2L12,2.3h9.6C22.9,2.3,24,3.4,24,4.8z"/>
</svg>
