<?xml version="1.0" encoding="utf-8"?>
<!-- Generator: Adobe Illustrator 24.2.1, SVG Export Plug-In . SVG Version: 6.00 Build 0)  -->
<svg version="1.1" id="Layer_1" xmlns="http://www.w3.org/2000/svg" xmlns:xlink="http://www.w3.org/1999/xlink" x="0px" y="0px"
	 viewBox="0 0 24 24" style="enable-background:new 0 0 24 24;" xml:space="preserve">
<style type="text/css">
	.st0{display:none;}
</style>
<path d="M24,4.8v2.6c0,0,0,0,0,0V7.3l-1-0.6c-1.1-0.6-2.3-1-3.5-1c-1.9,0-3.4,0.8-4.3,1.4c-0.9-0.6-2.4-1.3-4.2-1.3
	c-1.2,0-2.4,0.3-3.5,1l-1,0.6h0c-1.2,0.3-2.1,1.4-2.1,2.8v9h-2c-1.3,0-2.4-1.1-2.4-2.4V2.4C0,1.1,1.1,0,2.4,0h7.2L12,2.4h9.6
	C22.9,2.4,24,3.5,24,4.8z"/>
<path class="st0" d="M19.2,11.3l-5.8,5.8L10.3,14l-1.2,1.2l4.4,4.4l7-7L19.2,11.3z M15.2,6.4c-4.8,0-8.8,3.9-8.8,8.8
	s3.9,8.8,8.8,8.8s8.8-3.9,8.8-8.8S20.1,6.4,15.2,6.4z M15.2,22.2c-3.9,0-7-3.1-7-7s3.1-7,7-7s7,3.1,7,7S19.1,22.2,15.2,22.2z"/>
<path d="M7.8,10.2c0,13.1,0,11.7,0,12.5c2.9-1.4,6.1,0,6.1,0c0.5,0.3,0.9,0.4,0.9,0.9c0,0,0.1,0.4-0.9,0.4c-0.6,0-6.6,0-6.6,0
	c-0.5,0-0.9-0.4-0.9-0.9V10.2c0-0.5,0.2-0.9,0.7-0.9C7.1,9.3,7.8,9.3,7.8,10.2z"/>
<path d="M14.7,9.3v12.5c0,0-3-1.9-6.2-0.6c0-1.7,0,1.5,0-12.7C11.8,6.6,14.7,9.3,14.7,9.3z"/>
<path d="M22.6,10.2c0,13.1,0,11.7,0,12.5c-2.9-1.4-6.1,0-6.1,0c-0.5,0.3-0.9,0.4-0.9,0.9c0,0-0.1,0.4,0.9,0.4c0.6,0,6.6,0,6.6,0
	c0.5,0,0.9-0.4,0.9-0.9V10.2c0-0.5-0.2-0.9-0.7-0.9C23.3,9.3,22.6,9.3,22.6,10.2z"/>
<path d="M15.7,9.3v12.5c0,0,3-1.9,6.3-0.6c0-1.7,0,1.5,0-12.7C18.6,6.5,15.7,9.3,15.7,9.3z"/>
</svg>
