<?xml version="1.0" encoding="utf-8"?>
<!-- Generator: Adobe Illustrator 24.0.2, SVG Export Plug-In . SVG Version: 6.00 Build 0)  -->
<svg version="1.1" id="Layer_1" xmlns="http://www.w3.org/2000/svg" xmlns:xlink="http://www.w3.org/1999/xlink" x="0px" y="0px"
	 viewBox="0 0 24 24" style="enable-background:new 0 0 24 24;" xml:space="preserve">
<style type="text/css">
	.st0{fill:none;}
</style>
<path d="M24,4.8v5.5c-1.7-3.4-5.2-5.8-9.2-5.8C9.2,4.5,4.5,9.2,4.5,14.8c0,1.6,0.4,3.1,1,4.4H2.4c-1.3,0-2.4-1.1-2.4-2.4L0,2.4
	C0,1.1,1.1,0,2.4,0h7.2L12,2.4h9.6C22.9,2.4,24,3.5,24,4.8z"/>
<path class="st0" d="M0,0h24v24H0V0z"/>
<image style="display:none;overflow:visible;" width="2400" height="2404" xlink:href="../../../dummy_data/_ArmadaData/Projects/Google/image.png"  transform="matrix(6.194799e-03 0 0 6.194799e-03 9.1325 9.1077)">
</image>
<path d="M22.6,14.7c0,0.6-0.1,1.3-0.2,1.8c-0.7,3.6-3.4,6.2-7.6,6.2c-4.3,0-7.7-3.6-7.7-8c0-4.4,3.4-7.9,7.7-7.9
	c2.1,0,4.1,0.6,5.4,2L17.9,11c-0.8-0.6-1.8-1-2.9-1c-2.6,0-4.7,2.1-4.7,4.7c0,2.6,2.1,4.7,4.7,4.7c2,0,3.8-1.2,4.3-3.1H15v-3.1
	l7.4,0C22.5,13.7,22.6,14.2,22.6,14.7z"/>
</svg>
