<?xml version="1.0" encoding="utf-8"?>
<!-- Generator: Adobe Illustrator 24.0.2, SVG Export Plug-In . SVG Version: 6.00 Build 0)  -->
<svg version="1.1" id="Layer_1" xmlns="http://www.w3.org/2000/svg" xmlns:xlink="http://www.w3.org/1999/xlink" x="0px" y="0px"
	 viewBox="0 0 24 24" style="enable-background:new 0 0 24 24;" xml:space="preserve">
<style type="text/css">
	.st0{fill:none;}
</style>
<path d="M24,4.8v3.8c-0.5-0.3-1.2-0.5-1.8-0.5c-0.5-2.1-2.4-3.7-4.7-3.7c-1,0-2,0.3-2.8,0.9C13.9,4.7,13,4.4,12,4.4
	C9.7,4.4,7.8,6,7.3,8.1c-2.1,0-3.8,1.7-3.8,3.9l0,7.2H2.4c-1.3,0-2.4-1.1-2.4-2.4L0,2.4C0,1.1,1.1,0,2.4,0h7.2L12,2.4h9.6
	C22.9,2.4,24,3.5,24,4.8z"/>
<path class="st0" d="M0,0h24v24H0V0z"/>
<path d="M22.2,10.1c-0.1,0.7-0.4,1.3-0.8,1.9h0.8v5.5H7.3V12h0.8c-0.4-0.5-0.7-1.2-0.8-1.9c-1,0-1.8,0.9-1.8,1.9l0,10.2
	c0,1,0.8,1.8,1.9,1.8h14.8c1,0,1.8-0.8,1.8-1.8V12C24,11,23.2,10.1,22.2,10.1z M22.2,22.2H7.3v-1.9h14.8V22.2z M9.3,10.1
	C9.7,11.2,10.8,12,12,12H12l-1.3,1.8l-0.6,0.8l1.5,1.1l1.3-1.8c0,0,0,0,0,0l0.9-1.2l0.2-0.3l0.7-1l0.7,1l0.2,0.3l0.9,1.2h0l1.3,1.8
	l1.5-1.1l-0.6-0.8L17.4,12h0.1c1.2,0,2.2-0.8,2.6-1.9c0-0.1,0-0.1,0.1-0.2c0-0.1,0-0.1,0-0.2c0-0.1,0-0.1,0-0.2c0-0.1,0-0.2,0-0.3
	c0-1.5-1.2-2.8-2.8-2.8c-0.1,0-0.2,0-0.3,0c-0.1,0-0.3,0-0.4,0.1c-0.1,0-0.2,0.1-0.3,0.1c-0.1,0.1-0.3,0.1-0.4,0.2
	c-0.2,0.1-0.3,0.2-0.5,0.4c-0.1,0.1-0.2,0.1-0.2,0.2c0,0,0,0,0,0c0,0.1-0.1,0.2-0.2,0.2l0,0.1c0,0,0,0,0,0l-0.4,0.5l-0.4-0.6
	c-0.1-0.1-0.2-0.2-0.3-0.3l-0.2-0.2c-0.1-0.1-0.3-0.2-0.5-0.3c-0.1-0.1-0.3-0.1-0.4-0.2c-0.1,0-0.2-0.1-0.3-0.1
	c-0.1,0-0.3-0.1-0.4-0.1c-0.1,0-0.2,0-0.3,0c-1.5,0-2.8,1.2-2.8,2.8c0,0.3,0,0.5,0.1,0.7C9.3,10,9.3,10,9.3,10.1z M17.5,8.3
	c0.5,0,0.9,0.4,0.9,0.9s-0.4,0.9-0.9,0.9c-0.4,0-0.7-0.2-0.8-0.5c-0.1-0.1-0.1-0.3-0.1-0.5c0-0.2,0-0.3,0.1-0.5
	C16.9,8.4,17.2,8.3,17.5,8.3z M12,8.3c0.3,0,0.6,0.2,0.8,0.5c0.1,0.1,0.1,0.3,0.1,0.5s0,0.3-0.1,0.5c-0.2,0.3-0.5,0.4-0.8,0.4
	c-0.5,0-0.9-0.4-0.9-0.9S11.5,8.3,12,8.3z M18.8,13.8L17.4,12h0c-0.1,0-0.2,0-0.2,0c-0.1,0-0.1,0-0.2,0c-0.1,0-0.1,0-0.2-0.1
	c-0.1,0-0.2-0.1-0.3-0.1c0,0-0.1,0-0.1-0.1c-0.1,0-0.2-0.1-0.2-0.1c-0.1,0-0.2-0.1-0.3-0.2c-0.1-0.1-0.2-0.1-0.3-0.2
	c-0.3-0.3-0.5-0.5-0.6-0.9c0-0.1-0.1-0.2-0.1-0.3c0-0.1-0.1-0.2-0.1-0.4c0-0.1,0-0.2,0-0.4c0,1-0.5,1.9-1.4,2.4
	C13,11.8,12.5,12,12,12l-1.3,1.8l-0.6,0.8l1.5,1.1l1.3-1.8c0,0,0,0,0,0l0.9-1.2l0.2-0.3l0.7-1l0.7,1l0.2,0.3l0.9,1.2h0l1.3,1.8
	l1.5-1.1L18.8,13.8z"/>
</svg>
