<?xml version="1.0" encoding="utf-8"?>
<!-- Generator: Adobe Illustrator 24.0.2, SVG Export Plug-In . SVG Version: 6.00 Build 0)  -->
<svg version="1.1" id="Layer_1" xmlns="http://www.w3.org/2000/svg" xmlns:xlink="http://www.w3.org/1999/xlink" x="0px" y="0px"
	 viewBox="0 0 24 24" style="enable-background:new 0 0 24 24;" xml:space="preserve">
<style type="text/css">
	.st0{fill:none;}
</style>
<path d="M4.5,19.2h-2c-1.3,0-2.4-1.1-2.4-2.4V2.4C0,1.1,1.1,0,2.4,0h7.1L12,2.3h9.6c1.3,0,2.4,1.1,2.4,2.4v8.7
	c-0.4-0.2-0.9-0.4-1.3-0.5v-1.4c0-2-1.6-3.7-3.7-3.7h-1.4c-0.4-1.9-2-3.3-4-3.3s-3.7,1.5-4,3.3H8.1c-2,0-3.7,1.6-3.7,3.7"/>
<path class="st0" d="M0,0h24v24H0V0z"/>
<path d="M21.9,14.8h-1.3v-3.3c0-0.9-0.8-1.7-1.7-1.7h-3.3V8.5c0-1.2-0.9-2.1-2.1-2.1s-2.1,0.9-2.1,2.1v1.3H8.1
	c-0.9,0-1.7,0.8-1.7,1.7v3.2h1.2c1.2,0,2.3,1,2.3,2.3c0,1.2-1,2.3-2.3,2.3H6.5v3.2c0,0.9,0.8,1.7,1.7,1.7h3.2v-1.3
	c0-1.2,1-2.3,2.3-2.3s2.3,1,2.3,2.3V24H19c0.9,0,1.7-0.8,1.7-1.7V19h1.3c1.2,0,2.1-0.9,2.1-2.1S23.1,14.8,21.9,14.8z"/>
</svg>
