<?xml version="1.0" encoding="utf-8"?>
<!-- Generator: Adobe Illustrator 24.2.1, SVG Export Plug-In . SVG Version: 6.00 Build 0)  -->
<svg version="1.1" id="Layer_2" xmlns="http://www.w3.org/2000/svg" xmlns:xlink="http://www.w3.org/1999/xlink" x="0px" y="0px"
	 viewBox="0 0 24 24" style="enable-background:new 0 0 24 24;" xml:space="preserve">
<path d="M0.2,11.6c0-0.3,0-0.5,0.1-0.8C0.5,9,1,7.4,2,5.9c1.3-2.1,3.1-3.7,5.4-4.7C8.5,0.7,9.8,0.4,11,0.3c2.2-0.2,4.3,0.2,6.3,1.2
	c3.2,1.7,5.3,4.3,6.2,7.8c1.4,5.6-1.5,11.3-6.8,13.6c-0.3,0.1-0.5,0.2-0.8,0.3c-0.1,0-0.3,0-0.4,0c-0.3,0-0.4-0.3-0.4-0.6
	c0-0.5,0-1.1,0-1.6c0-0.7,0-1.3,0-2c0-0.6-0.2-1.2-0.6-1.6c-0.1-0.1-0.1-0.1-0.2-0.2c0.2,0,0.4-0.1,0.6-0.1c0.8-0.1,1.5-0.3,2.2-0.7
	c1.1-0.6,1.8-1.5,2.2-2.7c0.3-1,0.4-2,0.3-3C19.4,9.8,19,9,18.4,8.3c-0.1-0.1-0.1-0.1,0-0.2c0.3-0.8,0.2-1.7,0-2.5
	c0-0.1-0.1-0.3-0.1-0.4c0-0.1-0.1-0.1-0.2-0.1c-0.4,0-0.8,0.1-1.1,0.2c-0.7,0.2-1.3,0.6-1.9,1c-0.1,0.1-0.1,0.1-0.2,0
	c-1-0.3-2.1-0.4-3.1-0.4c-0.8,0-1.7,0.1-2.5,0.4c-0.1,0-0.2,0-0.3,0c-0.6-0.4-1.3-0.8-2-1C6.6,5.1,6.3,5.1,6,5.1
	c-0.1,0-0.1,0-0.2,0.1C5.5,6.1,5.4,7.1,5.6,8c0.1,0.2,0,0.3-0.1,0.4c-0.7,0.8-1,1.8-1.1,2.9c0,0.9,0.1,1.7,0.4,2.5
	c0.4,1.3,1.3,2.3,2.6,2.8c0.7,0.3,1.4,0.4,2.2,0.5c0,0,0.1,0,0.1,0c0,0,0,0,0,0c-0.4,0.4-0.6,0.9-0.7,1.4c0,0.1,0,0.1-0.1,0.2
	c-0.6,0.2-1.2,0.3-1.8,0.2c-0.6-0.2-1.1-0.6-1.4-1.1c-0.2-0.4-0.5-0.7-0.9-1c-0.4-0.3-0.8-0.4-1.3-0.3c0,0-0.1,0-0.1,0
	c-0.1,0.1-0.2,0.2-0.1,0.3c0.1,0.1,0.2,0.2,0.3,0.3c0.7,0.4,1.1,1.1,1.5,1.9c0.3,0.7,0.9,1.1,1.6,1.3c0.7,0.2,1.3,0.1,2,0
	c0.1,0,0.2,0,0.3-0.1c0,0,0,0.1,0,0.1c0,0.7,0,1.3,0,2c0,0.5-0.4,0.8-0.9,0.6c-1.1-0.4-2.1-0.9-3-1.5c-2.4-1.8-4-4.1-4.7-7
	c-0.2-0.7-0.2-1.3-0.3-2c0,0,0-0.1,0-0.1C0.2,12.2,0.2,11.9,0.2,11.6z"/>
</svg>
