<?xml version="1.0" encoding="utf-8"?>
<!-- Generator: Adobe Illustrator 25.0.1, SVG Export Plug-In . SVG Version: 6.00 Build 0)  -->
<svg version="1.1" id="Layer_1" xmlns="http://www.w3.org/2000/svg" xmlns:xlink="http://www.w3.org/1999/xlink" x="0px" y="0px"
	 viewBox="0 0 24 24" style="enable-background:new 0 0 24 24;" xml:space="preserve">
<style type="text/css">
	.st0{display:none;}
</style>
<path class="st0" d="M20,19h-8v2h8c1.1,0,2-0.9,2-2V5c0-1.1-0.9-2-2-2h-8v2h8V19z"/>
<polygon class="st0" points="11,7 9.6,8.4 12.2,11 2,11 2,13 12.2,13 9.6,15.6 11,17 16,12 "/>
<path d="M4,5h8V3H4C2.9,3,2,3.9,2,5v14c0,1.1,0.9,2,2,2h8v-2H4V5z"/>
<polygon points="17,7 15.6,8.4 18.2,11 8,11 8,13 18.2,13 15.6,15.6 17,17 22,12 "/>
</svg>
