<?xml version="1.0" encoding="utf-8"?>
<!-- Generator: Adobe Illustrator 24.2.1, SVG Export Plug-In . SVG Version: 6.00 Build 0)  -->
<svg version="1.1" id="Layer_1" xmlns="http://www.w3.org/2000/svg" xmlns:xlink="http://www.w3.org/1999/xlink" x="0px" y="0px"
	 viewBox="0 0 24 24" style="enable-background:new 0 0 24 24;" xml:space="preserve">
<path d="M21.6,4.8H12L9.6,2.4H2.4C1.1,2.4,0,3.5,0,4.8v14.4c0,1.3,1.1,2.4,2.4,2.4h19.2c1.3,0,2.4-1.1,2.4-2.4v-12
	C24,5.9,22.9,4.8,21.6,4.8z M11,16.7c-1,1-1.6,2.1-1.7,3.1c-0.1-1-0.7-2.1-1.7-3.1c-1-1-2.1-1.5-3.1-1.7c1-0.1,2.1-0.7,3.1-1.6
	c1-1,1.6-2.1,1.6-3.1c0.1,1,0.7,2.1,1.7,3.1s2.1,1.5,3.1,1.6C13.1,15.2,12,15.8,11,16.7z M17.5,11.4c-0.6,0.6-1,1.4-1.1,2
	c-0.1-0.6-0.5-1.4-1.1-2s-1.4-1-2-1.1c0.7,0,1.4-0.4,2.1-1.1c0.7-0.7,1-1.4,1.1-2.1c0,0.7,0.5,1.4,1.1,2.1c0.6,0.6,1.4,1,2,1.1
	C18.8,10.4,18.1,10.8,17.5,11.4z"/>
</svg>
