<?xml version="1.0" encoding="utf-8"?>
<!-- Generator: Adobe Illustrator 24.2.3, SVG Export Plug-In . SVG Version: 6.00 Build 0)  -->
<svg version="1.1" id="Layer_1" xmlns="http://www.w3.org/2000/svg" xmlns:xlink="http://www.w3.org/1999/xlink" x="0px" y="0px"
	 viewBox="0 0 24 24" style="enable-background:new 0 0 24 24;" xml:space="preserve">
<path d="M9.8,8.8c0,0.7,0,1.4,0,2.1c-0.1,0-0.2,0-0.3,0c-1,0-2,0-3,0c-0.2,0-0.3,0-0.3,0.2c-0.3,1.1-0.7,2.1-1.1,3.2
	c-0.2,0.5-0.4,1.1-0.5,1.6c0,0.1-0.1,0.3-0.1,0.4c5,0,10.1,0,15.1,0c-0.1-0.3-0.2-0.6-0.3-0.9c-0.5-1.4-1-2.8-1.4-4.3
	c-0.1-0.2-0.2-0.3-0.4-0.3c-1,0-2,0-3,0c-0.2,0-0.3,0-0.3-0.2c0-0.6,0-1.3,0-1.9c0.1,0,0.1,0,0.2,0c1.4,0,2.7,0,4.1,0
	c0.6,0,0.9,0.3,1.1,0.8c0.5,1.5,1,3,1.5,4.5c0.2,0.6,0.4,1.2,0.6,1.9c0,0.1,0.1,0.3,0.1,0.4c0,1.8,0,3.5,0,5.3
	c0,0.7-0.4,1.2-1.2,1.2c-5.7,0-11.5,0-17.2,0c-0.7,0-1.2-0.4-1.2-1.2c0-1.8,0-3.6,0-5.3c0-0.2,0.1-0.5,0.2-0.7c0.7-2,1.4-4.1,2-6.1
	c0.1-0.4,0.5-0.7,1-0.7C6.9,8.7,8.3,8.7,9.8,8.8C9.8,8.7,9.8,8.8,9.8,8.8z"/>
<path d="M10.8,4.8c-0.4,0.4-0.8,0.8-1.1,1.2C9.3,6.4,8.8,6.9,8.3,7.3C7.9,7.7,7.2,7.6,6.8,7.2c-0.4-0.4-0.4-1,0-1.4
	C7.6,5,8.3,4.2,9.1,3.5c0.8-0.8,1.6-1.6,2.4-2.4c0.2-0.2,0.3-0.3,0.5-0.5c0.3,0.3,0.5,0.5,0.7,0.7c0.9,0.9,1.8,1.8,2.7,2.7
	c0.6,0.6,1.2,1.2,1.8,1.8c0.4,0.4,0.4,1,0,1.4c-0.4,0.4-1.1,0.5-1.5,0.1c-0.5-0.4-0.9-0.9-1.4-1.4c-0.3-0.3-0.7-0.7-1-1
	c0,0-0.1-0.1-0.2-0.1c0,0.1,0,0.2,0,0.3c0,2.3,0,4.5,0,6.8c0,0.6-0.3,1-0.8,1.2c-0.7,0.2-1.3-0.2-1.4-0.9c0-0.1,0-0.2,0-0.3
	c0-2.2,0-4.5,0-6.7C10.9,5,10.9,4.9,10.8,4.8C10.9,4.8,10.9,4.8,10.8,4.8z"/>
</svg>
